<?xml version="1.0" encoding="UTF-8"?>
<svg id="Layer_2" data-name="Layer 2" xmlns="http://www.w3.org/2000/svg" viewBox="0 0 274 609.38">
  <defs>
    <style>
      .cls-1 {
        fill: #f6f6f6;
      }

      .cls-2 {
        fill: #f2f2f2;
      }

      .cls-3 {
        fill: #f9f9f9;
      }

      .cls-4 {
        fill: #f8f8f8;
      }

      .cls-5 {
        fill: #eee;
      }

      .cls-6 {
        fill: #f0f0f0;
      }

      .cls-7 {
        fill: #e9e9e9;
      }

      .cls-8 {
        fill: #f4f4f4;
      }

      .cls-9 {
        fill: #fff;
      }

      .cls-10 {
        fill: #fafafa;
      }

      .cls-11 {
        fill: #fbfbfb;
      }

      .cls-12 {
        fill: #efefef;
      }

      .cls-13 {
        fill: silver;
      }

      .cls-14 {
        fill: #d2d2d2;
      }

      .cls-15 {
        fill: #e1e1e1;
      }

      .cls-16 {
        fill: #dfdfdf;
      }

      .cls-17 {
        fill: gray;
      }
    </style>
  </defs>
  <polygon class="cls-13" points="64 504 137.5 580.86 211 504 64 504"/>
  <rect x="232" y="166" width="21" height="338"/>
  <rect class="cls-17" x="211" y="188" width="21" height="316"/>
  <rect class="cls-9" x="22" y="166" width="21" height="338"/>
  <rect x="211" y="504" width="21" height="21"/>
  <rect x="190" y="525" width="21" height="21"/>
  <rect x="169" y="546" width="21" height="21"/>
  <rect x="148" y="567" width="21" height="21"/>
  <rect class="cls-14" x="253" y="335" width="21" height="21"/>
  <rect class="cls-7" x="253" y="314" width="21" height="21"/>
  <rect class="cls-3" x="253" y="356" width="21" height="21"/>
  <rect class="cls-9" x="253" y="377" width="21" height="21"/>
  <rect class="cls-5" x="232" y="504" width="21" height="21"/>
  <rect class="cls-5" x="211" y="525" width="21" height="21"/>
  <rect class="cls-5" x="190" y="546" width="21" height="21"/>
  <rect class="cls-5" x="169" y="567" width="21" height="21"/>
  <rect class="cls-5" x="148" y="588" width="21" height="21"/>
  <rect x="127" y="588" width="21" height="21"/>
  <rect class="cls-17" x="148" y="546" width="21" height="21"/>
  <rect class="cls-17" x="127" y="567" width="21" height="21"/>
  <rect class="cls-17" x="169" y="525" width="21" height="21"/>
  <rect class="cls-17" x="190" y="504" width="21" height="21"/>
  <rect class="cls-9" x="43" y="504" width="21" height="21" transform="translate(107 1029) rotate(-180)"/>
  <rect class="cls-9" x="64" y="525" width="21" height="21" transform="translate(149 1071) rotate(-180)"/>
  <rect class="cls-9" x="85" y="546" width="21" height="21" transform="translate(191 1113) rotate(-180)"/>
  <rect class="cls-9" x="106" y="567" width="21" height="21" transform="translate(233 1155) rotate(-180)"/>
  <rect class="cls-1" x="64" y="546" width="21" height="21" transform="translate(149 1113) rotate(-180)"/>
  <rect class="cls-10" x="43" y="525" width="21" height="21" transform="translate(107 1071) rotate(-180)"/>
  <rect class="cls-12" x="85" y="567" width="21" height="21" transform="translate(191 1155) rotate(-180)"/>
  <rect class="cls-7" x="106" y="588" width="21" height="21" transform="translate(233 1197) rotate(-180)"/>
  <rect class="cls-16" x="106" y="546" width="21" height="21" transform="translate(233 1113) rotate(-180)"/>
  <rect class="cls-16" x="85" y="525" width="21" height="21" transform="translate(191 1071) rotate(-180)"/>
  <rect class="cls-16" x="64" y="504" width="21" height="21" transform="translate(149 1029) rotate(-180)"/>
  <polygon class="cls-16" points="64 188 43 188 43 504 64 504 64 209 211 209 211 188 64 188"/>
  <rect class="cls-9" x="43" y="166" width="168" height="22"/>
  <rect class="cls-2" x="43" y="146.5" width="210" height="20"/>
  <rect class="cls-6" x="253" y="167" width="21" height="147"/>
  <rect class="cls-4" x="253" y="398" width="21" height="106"/>
  <rect class="cls-15" x="1" y="334" width="21" height="21"/>
  <rect class="cls-6" x="1" y="313" width="21" height="21"/>
  <rect class="cls-11" x="1" y="355" width="21" height="21"/>
  <rect class="cls-9" x="1" y="376" width="21" height="21"/>
  <rect class="cls-4" x="1" y="271" width="21" height="42"/>
  <rect class="cls-4" x="1" y="397" width="21" height="85"/>
  <rect class="cls-8" x="1" y="166" width="21" height="105"/>
  <rect class="cls-13" x="64" y="209" width="147" height="295"/>
</svg>